<mxfile host="Electron" modified="2024-07-01T14:25:00.443Z" agent="Mozilla/5.0 (Windows NT 10.0; Win64; x64) AppleWebKit/537.36 (KHTML, like Gecko) draw.io/21.2.8 Chrome/112.0.5615.165 Electron/24.2.0 Safari/537.36" etag="LPJU4A4KIrowPr61JKvt" version="21.2.8" type="device">
  <diagram id="p4nJYQGftP_6fXi6QEYv" name="MySQL查询过程逻辑图">
    <mxGraphModel dx="1420" dy="830" grid="0" gridSize="10" guides="1" tooltips="1" connect="1" arrows="1" fold="1" page="1" pageScale="1" pageWidth="3300" pageHeight="2339" math="0" shadow="0">
      <root>
        <mxCell id="0" />
        <mxCell id="1" parent="0" />
        <mxCell id="6L7ACM4Tio5FzCOvMdfI-21" value="" style="rounded=1;whiteSpace=wrap;html=1;arcSize=2;dashed=1;strokeWidth=3;" vertex="1" parent="1">
          <mxGeometry x="310" y="80" width="770" height="360" as="geometry" />
        </mxCell>
        <mxCell id="6L7ACM4Tio5FzCOvMdfI-6" value="" style="rounded=1;whiteSpace=wrap;html=1;fillColor=#f5f5f5;strokeColor=#666666;fontColor=#333333;dashed=1;dashPattern=1 1;strokeWidth=2;arcSize=9;" vertex="1" parent="1">
          <mxGeometry x="320" y="92.5" width="260" height="95" as="geometry" />
        </mxCell>
        <mxCell id="6L7ACM4Tio5FzCOvMdfI-55" style="edgeStyle=orthogonalEdgeStyle;shape=connector;rounded=0;orthogonalLoop=1;jettySize=auto;html=1;entryX=-0.005;entryY=0.169;entryDx=0;entryDy=0;entryPerimeter=0;labelBackgroundColor=default;strokeColor=default;strokeWidth=2;fontFamily=Helvetica;fontSize=11;fontColor=default;endArrow=block;startArrow=block;startFill=1;endFill=1;" edge="1" parent="1" source="6L7ACM4Tio5FzCOvMdfI-2" target="6L7ACM4Tio5FzCOvMdfI-21">
          <mxGeometry relative="1" as="geometry" />
        </mxCell>
        <mxCell id="6L7ACM4Tio5FzCOvMdfI-2" value="&lt;font style=&quot;font-size: 18px;&quot;&gt;&lt;b&gt;客户端&lt;/b&gt;&lt;/font&gt;" style="rounded=1;whiteSpace=wrap;html=1;strokeWidth=2;" vertex="1" parent="1">
          <mxGeometry x="80" y="120" width="90" height="40" as="geometry" />
        </mxCell>
        <mxCell id="6L7ACM4Tio5FzCOvMdfI-8" style="rounded=0;orthogonalLoop=1;jettySize=auto;html=1;exitX=0;exitY=0.75;exitDx=0;exitDy=0;entryX=0;entryY=0.5;entryDx=0;entryDy=0;strokeWidth=2;endArrow=block;endFill=1;" edge="1" parent="1">
          <mxGeometry relative="1" as="geometry">
            <mxPoint x="430" y="139.5" as="sourcePoint" />
            <mxPoint x="320" y="139.5" as="targetPoint" />
            <Array as="points">
              <mxPoint x="410" y="139.5" />
            </Array>
          </mxGeometry>
        </mxCell>
        <mxCell id="6L7ACM4Tio5FzCOvMdfI-16" style="rounded=0;orthogonalLoop=1;jettySize=auto;html=1;exitX=0;exitY=0.25;exitDx=0;exitDy=0;startArrow=block;startFill=1;endArrow=none;endFill=0;strokeWidth=2;" edge="1" parent="1">
          <mxGeometry relative="1" as="geometry">
            <mxPoint x="430" y="127.5" as="sourcePoint" />
            <mxPoint x="320" y="127.5" as="targetPoint" />
          </mxGeometry>
        </mxCell>
        <mxCell id="6L7ACM4Tio5FzCOvMdfI-3" value="&lt;font style=&quot;font-size: 18px;&quot;&gt;&lt;b&gt;查询缓存&lt;/b&gt;&lt;/font&gt;" style="rounded=1;whiteSpace=wrap;html=1;strokeWidth=2;" vertex="1" parent="1">
          <mxGeometry x="430" y="112.5" width="120" height="40" as="geometry" />
        </mxCell>
        <mxCell id="6L7ACM4Tio5FzCOvMdfI-13" value="&lt;font style=&quot;font-size: 14px;&quot;&gt;&lt;span style=&quot;&quot;&gt;结果&lt;/span&gt;&lt;/font&gt;" style="text;html=1;strokeColor=none;fillColor=none;align=center;verticalAlign=middle;whiteSpace=wrap;rounded=0;fontStyle=1" vertex="1" parent="1">
          <mxGeometry x="340" y="142.5" width="60" height="30" as="geometry" />
        </mxCell>
        <mxCell id="6L7ACM4Tio5FzCOvMdfI-17" value="&lt;font style=&quot;font-size: 14px;&quot;&gt;&lt;b style=&quot;&quot;&gt;SQL&lt;/b&gt;&lt;/font&gt;" style="text;html=1;strokeColor=none;fillColor=none;align=center;verticalAlign=middle;whiteSpace=wrap;rounded=0;" vertex="1" parent="1">
          <mxGeometry x="340" y="97.5" width="60" height="30" as="geometry" />
        </mxCell>
        <mxCell id="6L7ACM4Tio5FzCOvMdfI-18" value="" style="rounded=1;whiteSpace=wrap;html=1;fillColor=#f5f5f5;strokeColor=#666666;fontColor=#333333;strokeWidth=2;dashed=1;dashPattern=1 1;arcSize=11;" vertex="1" parent="1">
          <mxGeometry x="320" y="230" width="260" height="70" as="geometry" />
        </mxCell>
        <mxCell id="6L7ACM4Tio5FzCOvMdfI-19" value="" style="rounded=1;whiteSpace=wrap;html=1;fillColor=#f5f5f5;strokeColor=#666666;fontColor=#333333;strokeWidth=2;dashed=1;dashPattern=1 1;arcSize=9;" vertex="1" parent="1">
          <mxGeometry x="320" y="340" width="340" height="80" as="geometry" />
        </mxCell>
        <mxCell id="6L7ACM4Tio5FzCOvMdfI-23" value="&lt;font style=&quot;font-size: 18px;&quot;&gt;&lt;b&gt;②&lt;/b&gt;&lt;/font&gt;" style="text;html=1;align=center;verticalAlign=middle;resizable=0;points=[];autosize=1;strokeColor=none;fillColor=none;" vertex="1" parent="1">
          <mxGeometry x="540" y="147.5" width="40" height="40" as="geometry" />
        </mxCell>
        <mxCell id="6L7ACM4Tio5FzCOvMdfI-24" value="&lt;span style=&quot;font-size: 18px;&quot;&gt;&lt;b&gt;⑥&lt;/b&gt;&lt;/span&gt;" style="text;html=1;align=center;verticalAlign=middle;resizable=0;points=[];autosize=1;strokeColor=none;fillColor=none;" vertex="1" parent="1">
          <mxGeometry x="540" y="249" width="40" height="40" as="geometry" />
        </mxCell>
        <mxCell id="6L7ACM4Tio5FzCOvMdfI-25" value="" style="rounded=1;whiteSpace=wrap;html=1;fillColor=#f5f5f5;strokeColor=#666666;fontColor=#333333;dashed=1;dashPattern=1 1;strokeWidth=2;arcSize=9;" vertex="1" parent="1">
          <mxGeometry x="720" y="92.5" width="350" height="207.5" as="geometry" />
        </mxCell>
        <mxCell id="6L7ACM4Tio5FzCOvMdfI-27" style="rounded=0;orthogonalLoop=1;jettySize=auto;html=1;startArrow=block;startFill=1;endArrow=none;endFill=0;strokeWidth=2;entryX=1;entryY=0.5;entryDx=0;entryDy=0;" edge="1" parent="1" source="6L7ACM4Tio5FzCOvMdfI-28" target="6L7ACM4Tio5FzCOvMdfI-3">
          <mxGeometry relative="1" as="geometry">
            <mxPoint x="700" y="127.5" as="sourcePoint" />
            <mxPoint x="590" y="127.5" as="targetPoint" />
          </mxGeometry>
        </mxCell>
        <mxCell id="6L7ACM4Tio5FzCOvMdfI-31" style="edgeStyle=orthogonalEdgeStyle;rounded=0;orthogonalLoop=1;jettySize=auto;html=1;strokeWidth=2;" edge="1" parent="1" source="6L7ACM4Tio5FzCOvMdfI-28" target="6L7ACM4Tio5FzCOvMdfI-30">
          <mxGeometry relative="1" as="geometry" />
        </mxCell>
        <mxCell id="6L7ACM4Tio5FzCOvMdfI-28" value="&lt;font style=&quot;font-size: 18px;&quot;&gt;&lt;b&gt;解析器&lt;/b&gt;&lt;/font&gt;" style="rounded=1;whiteSpace=wrap;html=1;strokeWidth=2;" vertex="1" parent="1">
          <mxGeometry x="750" y="112.5" width="100" height="40" as="geometry" />
        </mxCell>
        <mxCell id="6L7ACM4Tio5FzCOvMdfI-34" style="edgeStyle=orthogonalEdgeStyle;rounded=0;orthogonalLoop=1;jettySize=auto;html=1;entryX=0.5;entryY=0;entryDx=0;entryDy=0;strokeWidth=2;" edge="1" parent="1" source="6L7ACM4Tio5FzCOvMdfI-30" target="6L7ACM4Tio5FzCOvMdfI-33">
          <mxGeometry relative="1" as="geometry" />
        </mxCell>
        <mxCell id="6L7ACM4Tio5FzCOvMdfI-30" value="&lt;font style=&quot;font-size: 18px;&quot;&gt;&lt;b&gt;解析树&lt;/b&gt;&lt;/font&gt;" style="shape=document;whiteSpace=wrap;html=1;boundedLbl=1;strokeWidth=2;fillColor=#647687;fontColor=#ffffff;strokeColor=#314354;" vertex="1" parent="1">
          <mxGeometry x="940" y="101.25" width="100" height="62.5" as="geometry" />
        </mxCell>
        <mxCell id="6L7ACM4Tio5FzCOvMdfI-32" value="&lt;font style=&quot;font-size: 14px;&quot;&gt;&lt;b style=&quot;&quot;&gt;语法解析&lt;/b&gt;&lt;/font&gt;" style="text;html=1;strokeColor=none;fillColor=none;align=center;verticalAlign=middle;whiteSpace=wrap;rounded=0;" vertex="1" parent="1">
          <mxGeometry x="857" y="97.5" width="70" height="30" as="geometry" />
        </mxCell>
        <mxCell id="6L7ACM4Tio5FzCOvMdfI-36" style="edgeStyle=orthogonalEdgeStyle;shape=connector;rounded=0;orthogonalLoop=1;jettySize=auto;html=1;labelBackgroundColor=default;strokeColor=default;strokeWidth=2;fontFamily=Helvetica;fontSize=11;fontColor=default;endArrow=classic;" edge="1" parent="1" source="6L7ACM4Tio5FzCOvMdfI-33" target="6L7ACM4Tio5FzCOvMdfI-35">
          <mxGeometry relative="1" as="geometry" />
        </mxCell>
        <mxCell id="6L7ACM4Tio5FzCOvMdfI-33" value="&lt;font style=&quot;font-size: 18px;&quot;&gt;&lt;b&gt;预处理器&lt;/b&gt;&lt;/font&gt;" style="rounded=1;whiteSpace=wrap;html=1;strokeWidth=2;" vertex="1" parent="1">
          <mxGeometry x="930" y="220" width="120" height="40" as="geometry" />
        </mxCell>
        <mxCell id="6L7ACM4Tio5FzCOvMdfI-35" value="&lt;font style=&quot;font-size: 18px;&quot;&gt;&lt;b&gt;新解析树&lt;/b&gt;&lt;/font&gt;" style="shape=document;whiteSpace=wrap;html=1;boundedLbl=1;strokeWidth=2;fillColor=#647687;fontColor=#ffffff;strokeColor=#314354;" vertex="1" parent="1">
          <mxGeometry x="750" y="208.75" width="100" height="62.5" as="geometry" />
        </mxCell>
        <mxCell id="6L7ACM4Tio5FzCOvMdfI-37" value="" style="rounded=1;whiteSpace=wrap;html=1;fillColor=#f5f5f5;strokeColor=#666666;fontColor=#333333;strokeWidth=2;dashed=1;dashPattern=1 1;arcSize=9;" vertex="1" parent="1">
          <mxGeometry x="717" y="340" width="350" height="80" as="geometry" />
        </mxCell>
        <mxCell id="6L7ACM4Tio5FzCOvMdfI-41" style="edgeStyle=orthogonalEdgeStyle;shape=connector;rounded=0;orthogonalLoop=1;jettySize=auto;html=1;labelBackgroundColor=default;strokeColor=default;strokeWidth=2;fontFamily=Helvetica;fontSize=11;fontColor=default;endArrow=classic;" edge="1" parent="1" source="6L7ACM4Tio5FzCOvMdfI-38" target="6L7ACM4Tio5FzCOvMdfI-40">
          <mxGeometry relative="1" as="geometry" />
        </mxCell>
        <mxCell id="6L7ACM4Tio5FzCOvMdfI-38" value="&lt;font style=&quot;font-size: 18px;&quot;&gt;&lt;b&gt;查询优化器&lt;/b&gt;&lt;/font&gt;" style="rounded=1;whiteSpace=wrap;html=1;strokeWidth=2;" vertex="1" parent="1">
          <mxGeometry x="740" y="360" width="120" height="40" as="geometry" />
        </mxCell>
        <mxCell id="6L7ACM4Tio5FzCOvMdfI-39" style="edgeStyle=orthogonalEdgeStyle;shape=connector;rounded=0;orthogonalLoop=1;jettySize=auto;html=1;labelBackgroundColor=default;strokeColor=default;strokeWidth=2;fontFamily=Helvetica;fontSize=11;fontColor=default;endArrow=classic;" edge="1" parent="1" source="6L7ACM4Tio5FzCOvMdfI-35" target="6L7ACM4Tio5FzCOvMdfI-38">
          <mxGeometry relative="1" as="geometry" />
        </mxCell>
        <mxCell id="6L7ACM4Tio5FzCOvMdfI-43" style="edgeStyle=orthogonalEdgeStyle;shape=connector;rounded=0;orthogonalLoop=1;jettySize=auto;html=1;labelBackgroundColor=default;strokeColor=default;strokeWidth=2;fontFamily=Helvetica;fontSize=11;fontColor=default;endArrow=classic;" edge="1" parent="1" source="6L7ACM4Tio5FzCOvMdfI-40" target="6L7ACM4Tio5FzCOvMdfI-42">
          <mxGeometry relative="1" as="geometry" />
        </mxCell>
        <mxCell id="6L7ACM4Tio5FzCOvMdfI-40" value="&lt;font style=&quot;font-size: 18px;&quot;&gt;&lt;b&gt;执行计划&lt;/b&gt;&lt;/font&gt;" style="shape=document;whiteSpace=wrap;html=1;boundedLbl=1;strokeWidth=2;" vertex="1" parent="1">
          <mxGeometry x="540" y="348.75" width="100" height="62.5" as="geometry" />
        </mxCell>
        <mxCell id="6L7ACM4Tio5FzCOvMdfI-48" style="edgeStyle=orthogonalEdgeStyle;shape=connector;rounded=0;orthogonalLoop=1;jettySize=auto;html=1;labelBackgroundColor=default;strokeColor=default;strokeWidth=2;fontFamily=Helvetica;fontSize=11;fontColor=default;endArrow=classic;elbow=vertical;curved=1;" edge="1" parent="1" source="6L7ACM4Tio5FzCOvMdfI-42" target="6L7ACM4Tio5FzCOvMdfI-3">
          <mxGeometry relative="1" as="geometry">
            <Array as="points">
              <mxPoint x="405" y="280" />
              <mxPoint x="490" y="280" />
            </Array>
          </mxGeometry>
        </mxCell>
        <mxCell id="6L7ACM4Tio5FzCOvMdfI-51" value="&lt;font style=&quot;font-size: 18px;&quot;&gt;&lt;b&gt;缓存结果&lt;/b&gt;&lt;/font&gt;" style="edgeLabel;html=1;align=center;verticalAlign=middle;resizable=0;points=[];fontSize=11;fontFamily=Helvetica;fontColor=default;" vertex="1" connectable="0" parent="6L7ACM4Tio5FzCOvMdfI-48">
          <mxGeometry x="0.2786" y="17" relative="1" as="geometry">
            <mxPoint as="offset" />
          </mxGeometry>
        </mxCell>
        <mxCell id="6L7ACM4Tio5FzCOvMdfI-49" style="edgeStyle=orthogonalEdgeStyle;shape=connector;rounded=0;orthogonalLoop=1;jettySize=auto;html=1;exitX=0.5;exitY=0;exitDx=0;exitDy=0;labelBackgroundColor=default;strokeColor=default;strokeWidth=2;fontFamily=Helvetica;fontSize=11;fontColor=default;endArrow=classic;curved=1;entryX=-0.001;entryY=0.342;entryDx=0;entryDy=0;entryPerimeter=0;" edge="1" parent="1" source="6L7ACM4Tio5FzCOvMdfI-42" target="6L7ACM4Tio5FzCOvMdfI-21">
          <mxGeometry relative="1" as="geometry">
            <mxPoint x="330" y="180" as="targetPoint" />
            <Array as="points">
              <mxPoint x="405" y="203" />
            </Array>
          </mxGeometry>
        </mxCell>
        <mxCell id="6L7ACM4Tio5FzCOvMdfI-50" value="&lt;font style=&quot;font-size: 18px;&quot;&gt;&lt;b&gt;返回结果&lt;/b&gt;&lt;/font&gt;" style="edgeLabel;html=1;align=center;verticalAlign=middle;resizable=0;points=[];fontSize=11;fontFamily=Helvetica;fontColor=default;" vertex="1" connectable="0" parent="6L7ACM4Tio5FzCOvMdfI-49">
          <mxGeometry x="-0.1847" y="16" relative="1" as="geometry">
            <mxPoint as="offset" />
          </mxGeometry>
        </mxCell>
        <mxCell id="6L7ACM4Tio5FzCOvMdfI-42" value="&lt;font style=&quot;font-size: 18px;&quot;&gt;&lt;b&gt;查询执行引擎&lt;/b&gt;&lt;/font&gt;" style="rounded=1;whiteSpace=wrap;html=1;strokeWidth=2;" vertex="1" parent="1">
          <mxGeometry x="330" y="360" width="150" height="40" as="geometry" />
        </mxCell>
        <mxCell id="6L7ACM4Tio5FzCOvMdfI-52" value="&lt;font style=&quot;font-size: 18px;&quot;&gt;&lt;b&gt;③&lt;/b&gt;&lt;/font&gt;" style="text;html=1;align=center;verticalAlign=middle;resizable=0;points=[];autosize=1;strokeColor=none;fillColor=none;" vertex="1" parent="1">
          <mxGeometry x="1027" y="168.75" width="40" height="40" as="geometry" />
        </mxCell>
        <mxCell id="6L7ACM4Tio5FzCOvMdfI-53" value="&lt;font style=&quot;font-size: 18px;&quot;&gt;&lt;b&gt;④&lt;/b&gt;&lt;/font&gt;" style="text;html=1;align=center;verticalAlign=middle;resizable=0;points=[];autosize=1;strokeColor=none;fillColor=none;" vertex="1" parent="1">
          <mxGeometry x="1027" y="360" width="40" height="40" as="geometry" />
        </mxCell>
        <mxCell id="6L7ACM4Tio5FzCOvMdfI-54" value="&lt;font style=&quot;font-size: 18px;&quot;&gt;&lt;b&gt;⑤&lt;/b&gt;&lt;/font&gt;" style="text;html=1;align=center;verticalAlign=middle;resizable=0;points=[];autosize=1;strokeColor=none;fillColor=none;" vertex="1" parent="1">
          <mxGeometry x="490" y="340" width="40" height="40" as="geometry" />
        </mxCell>
        <mxCell id="6L7ACM4Tio5FzCOvMdfI-56" value="&lt;font style=&quot;font-size: 14px;&quot;&gt;&lt;b&gt;① 客户端/服务器&lt;br&gt;通信协议&lt;/b&gt;&lt;br&gt;&lt;/font&gt;" style="text;html=1;align=center;verticalAlign=middle;resizable=0;points=[];autosize=1;strokeColor=none;fillColor=none;" vertex="1" parent="1">
          <mxGeometry x="170" y="87.5" width="130" height="50" as="geometry" />
        </mxCell>
        <mxCell id="6L7ACM4Tio5FzCOvMdfI-57" value="" style="rounded=1;whiteSpace=wrap;html=1;arcSize=2;dashed=1;strokeWidth=3;" vertex="1" parent="1">
          <mxGeometry x="310" y="480" width="770" height="230" as="geometry" />
        </mxCell>
        <mxCell id="6L7ACM4Tio5FzCOvMdfI-67" style="edgeStyle=orthogonalEdgeStyle;shape=connector;rounded=0;orthogonalLoop=1;jettySize=auto;html=1;labelBackgroundColor=default;strokeColor=default;strokeWidth=2;fontFamily=Helvetica;fontSize=11;fontColor=default;endArrow=classic;" edge="1" parent="1" source="6L7ACM4Tio5FzCOvMdfI-58" target="6L7ACM4Tio5FzCOvMdfI-66">
          <mxGeometry relative="1" as="geometry" />
        </mxCell>
        <mxCell id="6L7ACM4Tio5FzCOvMdfI-58" value="" style="rounded=1;whiteSpace=wrap;html=1;strokeWidth=2;arcSize=5;" vertex="1" parent="1">
          <mxGeometry x="330" y="520" width="150" height="170" as="geometry" />
        </mxCell>
        <mxCell id="6L7ACM4Tio5FzCOvMdfI-64" style="edgeStyle=orthogonalEdgeStyle;shape=connector;rounded=0;orthogonalLoop=1;jettySize=auto;html=1;labelBackgroundColor=default;strokeColor=default;strokeWidth=2;fontFamily=Helvetica;fontSize=11;fontColor=default;endArrow=classic;" edge="1" parent="1" source="6L7ACM4Tio5FzCOvMdfI-42" target="6L7ACM4Tio5FzCOvMdfI-58">
          <mxGeometry relative="1" as="geometry" />
        </mxCell>
        <mxCell id="6L7ACM4Tio5FzCOvMdfI-65" value="&lt;font style=&quot;font-size: 14px;&quot;&gt;&lt;b&gt;API 查询接口&lt;/b&gt;&lt;/font&gt;" style="edgeLabel;html=1;align=center;verticalAlign=middle;resizable=0;points=[];fontSize=11;fontFamily=Helvetica;fontColor=default;" vertex="1" connectable="0" parent="6L7ACM4Tio5FzCOvMdfI-64">
          <mxGeometry x="-0.2" relative="1" as="geometry">
            <mxPoint y="11" as="offset" />
          </mxGeometry>
        </mxCell>
        <mxCell id="6L7ACM4Tio5FzCOvMdfI-59" value="&lt;font style=&quot;font-size: 18px;&quot;&gt;&lt;b style=&quot;&quot;&gt;MyISAM&lt;/b&gt;&lt;/font&gt;" style="rounded=1;whiteSpace=wrap;html=1;strokeWidth=2;" vertex="1" parent="1">
          <mxGeometry x="340" y="540" width="130" height="40" as="geometry" />
        </mxCell>
        <mxCell id="6L7ACM4Tio5FzCOvMdfI-61" value="&lt;b style=&quot;&quot;&gt;&lt;font style=&quot;font-size: 18px;&quot;&gt;InnoDB&lt;/font&gt;&lt;/b&gt;" style="rounded=1;whiteSpace=wrap;html=1;strokeWidth=2;" vertex="1" parent="1">
          <mxGeometry x="340" y="590" width="130" height="40" as="geometry" />
        </mxCell>
        <mxCell id="6L7ACM4Tio5FzCOvMdfI-63" value="&lt;b style=&quot;&quot;&gt;&lt;font style=&quot;font-size: 18px;&quot;&gt;. . . . . .&lt;/font&gt;&lt;/b&gt;" style="rounded=1;whiteSpace=wrap;html=1;strokeWidth=2;" vertex="1" parent="1">
          <mxGeometry x="340" y="640" width="130" height="40" as="geometry" />
        </mxCell>
        <mxCell id="6L7ACM4Tio5FzCOvMdfI-66" value="&lt;b&gt;&lt;font style=&quot;font-size: 18px;&quot;&gt;数据&lt;/font&gt;&lt;/b&gt;" style="shape=cylinder3;whiteSpace=wrap;html=1;boundedLbl=1;backgroundOutline=1;size=10;fontFamily=Helvetica;fontSize=11;fontColor=default;strokeWidth=2;" vertex="1" parent="1">
          <mxGeometry x="580" y="565" width="110" height="80" as="geometry" />
        </mxCell>
        <mxCell id="6L7ACM4Tio5FzCOvMdfI-68" value="&lt;font style=&quot;font-size: 18px;&quot;&gt;&lt;b&gt;存储引擎&lt;/b&gt;&lt;/font&gt;" style="text;html=1;align=center;verticalAlign=middle;resizable=0;points=[];autosize=1;strokeColor=none;fillColor=none;fontSize=11;fontFamily=Helvetica;fontColor=default;" vertex="1" parent="1">
          <mxGeometry x="920" y="585" width="100" height="40" as="geometry" />
        </mxCell>
      </root>
    </mxGraphModel>
  </diagram>
</mxfile>
